# xmcd
#
# Track frame offsets: 
#        150
#        29260
#        46715
#        60618
#        68145
#        106740
#        152940
#        182380
#        198125
#        230167
#        234717
#        252667
#        326384
#        335279
#        345594
#
# Disc length: 4797 seconds
#
# Revision: 1
# Processed by: cddbd v1.5.2PL0 Copyright (c) Steve Scherf et al.
# Submitted via: ExactAudioCopy v1.3
#
DISCID=c912bb0f
DTITLE=Son House - Akella Presents - Greatest Bluesmen - vol. 08  CD2
DYEAR=2017
DGENRE=Blues
TTITLE0=Introduction House
TTITLE1=It's So Hard
TTITLE2=Judgement Day
TTITLE3=New York Central
TTITLE4=A True Friends Is Hard To Find
TTITLE5=Preachin Blues
TTITLE6=Between midnight and day
TTITLE7=I Want To Go Home On The Morning Train
TTITLE8=Levee Camp Moan
TTITLE9=This Little Light Of Minee
TTITLE10=Death Letter Blues
TTITLE11=How To Treat A Man
TTITLE12=Grinnin' In Your Face
TTITLE13=John The Revelator
TTITLE14=Grinnin' In Your Face (Alternate Take)
EXTD=
EXTT0=
EXTT1=
EXTT2=
EXTT3=
EXTT4=
EXTT5=
EXTT6=
EXTT7=
EXTT8=
EXTT9=
EXTT10=
EXTT11=
EXTT12=
EXTT13=
EXTT14=
PLAYORDER=
